<?xml version="1.0" encoding="UTF-8"?>
<svg width="85px" height="85px" viewBox="0 0 85 85" version="1.1" xmlns="http://www.w3.org/2000/svg" xmlns:xlink="http://www.w3.org/1999/xlink">
    <!-- Generator: Sketch 46.2 (44496) - http://www.bohemiancoding.com/sketch -->
    <title>Combined Shape</title>
    <desc>Created with Sketch.</desc>
    <defs>
        <linearGradient x1="0%" y1="64.5174632%" x2="100%" y2="58.4696691%" id="linearGradient-1">
            <stop stop-color="#E40032" offset="0%"></stop>
            <stop stop-color="#A700A9" offset="100%"></stop>
        </linearGradient>
    </defs>
    <g id="Page-1" stroke="none" stroke-width="1" fill="none" fill-rule="evenodd">
        <g id="00.Home" transform="translate(-518.000000, -930.000000)" fill-rule="nonzero" fill="url(#linearGradient-1)">
            <path d="M550.259843,938.232283 L544.788386,930 L518,930 L518,951.936024 L518,954.680118 L518,1015 L603,1015 L603,954.680118 L603,951.936024 L603,938.232283 L550.259843,938.232283 Z M520.744094,932.744094 L543.315945,932.744094 L548.804134,940.976378 L600.255906,940.976378 L600.255906,951.936024 L520.744094,951.936024 L520.744094,932.744094 Z M600.255906,1012.25591 L520.744094,1012.25591 L520.744094,954.680118 L600.255906,954.680118 L600.255906,1012.25591 Z M524.860236,958.79626 L524.860236,1008.1565 L596.139764,1008.1565 L596.139764,958.79626 L524.860236,958.79626 Z M593.412402,1005.39567 L593.395669,1005.39567 L527.604331,1005.39567 L527.604331,961.540354 L593.412402,961.540354 L593.412402,1005.39567 Z M578.835286,976.599016 L575.613514,971.01985 C574.722943,969.487544 572.745352,968.950582 571.213046,969.841153 L560.984575,975.747735 C559.452269,976.638306 558.915307,978.602801 559.805878,980.148203 L560.355937,981.078064 L562.215659,980.004141 L561.678697,979.07428 C561.377474,978.563511 561.560827,977.908679 562.071596,977.607457 L572.300066,971.700875 C572.810835,971.399653 573.465667,971.583006 573.766889,972.093774 L576.988661,977.67294 C577.289883,978.183709 577.10653,978.83854 576.595762,979.139763 L566.367292,985.046344 C566.118455,985.190407 565.83033,985.229697 565.5553,985.151117 C565.280271,985.072537 565.044532,984.902281 564.900469,984.653445 L564.363507,983.723584 L562.503785,984.797508 L563.040747,985.727369 C563.472936,986.473877 564.167057,987.010839 564.992145,987.233482 C565.267174,987.312062 565.5553,987.338255 565.83033,987.338255 C566.393485,987.338255 566.943543,987.194192 567.428119,986.906066 L577.656589,980.999485 C579.188895,980.108914 579.725857,978.144419 578.835286,976.599016 Z M555.160446,985.062952 L556.440953,987.280791 L565.729566,981.917851 L564.449058,979.700012 L555.160446,985.062952 Z M561.181025,986.801293 L560.644063,985.871432 L558.784341,986.945356 L559.321303,987.875217 C559.465366,988.124053 559.504656,988.412179 559.426076,988.687208 C559.347496,988.962237 559.17724,989.197977 558.928404,989.34204 L548.71303,995.235524 C548.202262,995.536747 547.54743,995.353394 547.246208,994.842626 L544.024436,989.26346 C543.723213,988.752691 543.906566,988.09786 544.417335,987.796637 L554.645805,981.890056 C554.894641,981.745993 555.182767,981.706703 555.457796,981.785283 C555.732826,981.863862 555.968565,982.034119 556.112628,982.282955 L556.64959,983.212816 L558.509312,982.138892 L557.97235,981.209031 C557.540161,980.462523 556.846039,979.925561 556.020952,979.702918 C555.195864,979.480275 554.318389,979.598145 553.571881,980.030334 L543.343411,985.936915 C541.811105,986.827486 541.274143,988.791981 542.164714,990.337384 L545.386486,995.916549 C545.988931,996.951183 547.062855,997.527435 548.176068,997.527435 C548.726127,997.527435 549.276186,997.383372 549.773858,997.095246 L560.002328,991.188665 C560.748836,990.756476 561.285798,990.062355 561.508441,989.237267 C561.731083,988.412179 561.613214,987.534704 561.181025,986.801293 Z M527.604331,940.959646 L530.348425,940.959646 L530.348425,943.70374 L527.604331,943.70374 L527.604331,940.959646 Z M533.075787,940.959646 L535.819882,940.959646 L535.819882,943.70374 L533.075787,943.70374 L533.075787,940.959646 Z M538.563976,940.959646 L541.308071,940.959646 L541.308071,943.70374 L538.563976,943.70374 L538.563976,940.959646 Z" id="Combined-Shape"></path>
        </g>
    </g>
</svg>