<?xml version="1.0" encoding="UTF-8"?>
<svg width="100px" height="85px" viewBox="0 0 100 85" version="1.1" xmlns="http://www.w3.org/2000/svg" xmlns:xlink="http://www.w3.org/1999/xlink">
    <!-- Generator: Sketch 46.2 (44496) - http://www.bohemiancoding.com/sketch -->
    <title>Group 5</title>
    <desc>Created with Sketch.</desc>
    <defs>
        <linearGradient x1="0%" y1="50%" x2="100%" y2="50%" id="linearGradient-1">
            <stop stop-color="#E40034" offset="0%"></stop>
            <stop stop-color="#A800A7" offset="100%"></stop>
        </linearGradient>
        <linearGradient x1="0%" y1="42.9319859%" x2="100%" y2="42.9319853%" id="linearGradient-2">
            <stop stop-color="#E40032" offset="0%"></stop>
            <stop stop-color="#A700A9" offset="100%"></stop>
        </linearGradient>
    </defs>
    <g id="Page-1" stroke="none" stroke-width="1" fill="none" fill-rule="evenodd">
        <g id="00.Home" transform="translate(-910.000000, -930.000000)">
            <g id="Group-5" transform="translate(910.000000, 930.000000)">
                <g id="Group-6" transform="translate(22.000000, 16.000000)">
                    <rect id="Rectangle-3" stroke="url(#linearGradient-1)" stroke-width="3" x="1.5" y="14.5" width="53" height="9"></rect>
                    <path d="M4.92652149,0.392523364 C6.68046366,0.392523364 7.68553164,1.21495327 7.68553164,2.6635514 C7.68553164,4.18691589 6.68046366,5.06542056 4.92652149,5.06542056 L3.55687002,5.06542056 L3.55687002,6.93457944 L2,6.93457944 L2,0.392523364 L4.92652149,0.392523364 Z M4.84769262,3.8317757 C5.7148101,3.8317757 6.20749049,3.45794393 6.20749049,2.71028037 C6.20749049,1.98130841 5.7148101,1.61682243 4.84769262,1.61682243 L3.55687002,1.61682243 L3.55687002,3.8317757 L4.84769262,3.8317757 Z M13.2134056,6.93457944 L11.7255108,6.93457944 L11.7255108,6.34579439 C11.3707809,6.76635514 10.7992717,7 10.0602511,7 C8.92708621,7 8.23733367,6.34579439 8.23733367,5.42990654 C8.23733367,4.48598131 8.95664703,3.92523364 10.2573233,3.91588785 L11.7156572,3.91588785 L11.7156572,3.82242991 C11.7156572,3.28971963 11.3412201,2.98130841 10.6120531,2.98130841 C10.13908,2.98130841 9.58727793,3.13084112 9.0354759,3.42056075 L8.56250273,2.42990654 C9.35079134,2.05607477 10.0306903,1.85046729 10.9569294,1.85046729 C12.3758489,1.85046729 13.1936983,2.52336449 13.203552,3.65420561 L13.2134056,6.93457944 Z M10.4839562,5.97196262 C11.1244407,5.97196262 11.6269747,5.64485981 11.7156572,5.21495327 L11.7156572,4.76635514 L10.5233707,4.76635514 C9.9420078,4.76635514 9.65625318,4.93457944 9.65625318,5.3364486 C9.65625318,5.71962617 9.97156863,5.97196262 10.4839562,5.97196262 Z M17.8643084,3.38317757 L18.3865496,2.40186916 C17.7953331,2.04672897 17.046459,1.8411215 16.317292,1.8411215 C15.1644199,1.8411215 14.2283272,2.37383178 14.2283272,3.41121495 C14.2283272,5.17757009 16.9774837,4.74766355 16.9774837,5.55140187 C16.9774837,5.82242991 16.6917291,5.94392523 16.3074384,5.94392523 C15.7260755,5.94392523 15.0166158,5.71962617 14.4648137,5.31775701 L13.9721334,6.28971963 C14.5732034,6.74766355 15.4107601,6.99065421 16.2680239,6.99065421 C17.4701641,6.99065421 18.425964,6.44859813 18.425964,5.42056075 C18.4358176,3.64485981 15.6373931,4.02803738 15.6373931,3.27102804 C15.6373931,3.00934579 15.8935869,2.89719626 16.2483167,2.89719626 C16.6917291,2.89719626 17.2829455,3.07476636 17.8643084,3.38317757 Z M22.4068215,5.59813084 C22.1309205,5.71962617 21.8944339,5.78504673 21.6973618,5.78504673 C21.3721927,5.79439252 21.1849742,5.62616822 21.1849742,5.20560748 L21.1849742,3.13084112 L22.6236009,3.13084112 L22.6236009,2.13084112 L21.1849742,2.13084112 L21.1849742,0.747663551 L19.6773722,0.747663551 L19.6773722,2.13084112 L18.9383516,2.13084112 L18.9383516,3.12149533 L19.6773722,3.12149533 L19.6773722,5.44859813 C19.6773722,6.48598131 20.3966856,7 21.3426319,7 C21.8353123,7 22.3279927,6.86915888 22.722137,6.65420561 L22.4068215,5.59813084 Z M25.9147059,1.85981308 C27.7770377,1.85981308 28.6441552,3.02803738 28.5160583,4.85981308 L24.7125657,4.85981308 C24.8899307,5.4953271 25.4023183,5.86915888 26.0822172,5.86915888 C26.5847512,5.86915888 27.0577244,5.68224299 27.4223079,5.3364486 L28.2204501,6.10280374 C27.6883553,6.6635514 26.9099203,6.99065421 25.9541203,6.99065421 C24.2592998,6.99065421 23.1852565,5.96261682 23.1852565,4.43925234 C23.1852565,2.88785047 24.2987142,1.85981308 25.9147059,1.85981308 Z M24.6830049,4.00934579 L27.0971388,4.00934579 C27.0774316,3.34579439 26.6241656,2.91588785 25.9245595,2.91588785 C25.2545142,2.91588785 24.8012482,3.34579439 24.6830049,4.00934579 Z M35.8767033,1.85046729 C35.0490002,1.85981308 34.4183693,2.1682243 34.0439322,2.79439252 L34.0439322,0 L32.5264766,0 L32.5264766,6.93457944 L34.0439322,6.93457944 L34.0439322,4.45794393 C34.0439322,3.71962617 34.5070518,3.17757009 35.2657796,3.1682243 C35.9161177,3.1682243 36.310262,3.56074766 36.310262,4.19626168 L36.310262,6.93457944 L37.8277176,6.93457944 L37.8277176,3.77570093 C37.8277176,2.59813084 37.0689898,1.85046729 35.8767033,1.85046729 Z M41.4045772,1.85981308 C43.266909,1.85981308 44.1340265,3.02803738 44.0059296,4.85981308 L40.202437,4.85981308 C40.379802,5.4953271 40.8921896,5.86915888 41.5720885,5.86915888 C42.0746225,5.86915888 42.5475957,5.68224299 42.9121792,5.3364486 L43.7103214,6.10280374 C43.1782266,6.6635514 42.3997916,6.99065421 41.4439916,6.99065421 C39.7491711,6.99065421 38.6751278,5.96261682 38.6751278,4.43925234 C38.6751278,2.88785047 39.7885855,1.85981308 41.4045772,1.85981308 Z M40.1728762,4.00934579 L42.5870101,4.00934579 C42.5673029,3.34579439 42.1140369,2.91588785 41.4144308,2.91588785 C40.7443855,2.91588785 40.2911195,3.34579439 40.1728762,4.00934579 Z M46.5284532,2.81308411 L46.5284532,1.90654206 L45.0109976,1.90654206 L45.0109976,6.93457944 L46.5284532,6.93457944 L46.5284532,4.51401869 C46.5284532,3.6635514 47.1984985,3.11214953 48.2823954,3.20560748 L48.2823954,1.85046729 C47.4941067,1.85981308 46.8930367,2.19626168 46.5284532,2.81308411 Z M51.3862818,1.85981308 C53.2486136,1.85981308 54.1157311,3.02803738 53.9876342,4.85981308 L50.1841416,4.85981308 C50.3615066,5.4953271 50.8738942,5.86915888 51.5537931,5.86915888 C52.0563271,5.86915888 52.5293003,5.68224299 52.8938838,5.3364486 L53.692026,6.10280374 C53.1599312,6.6635514 52.3814962,6.99065421 51.4256962,6.99065421 C49.7308757,6.99065421 48.6568324,5.96261682 48.6568324,4.43925234 C48.6568324,2.88785047 49.7702901,1.85981308 51.3862818,1.85981308 Z M50.1545808,4.00934579 L52.5687147,4.00934579 C52.5490075,3.34579439 52.0957415,2.91588785 51.3961354,2.91588785 C50.7260901,2.91588785 50.2728241,3.34579439 50.1545808,4.00934579 Z" id="Paste-here" fill="#CD005E"></path>
                </g>
                <path d="M100,71.3900415 L100,0 L0,0 L0,71.3900415 L32.2637795,71.3900415 L32.2637795,81.5975104 L25.8070866,81.5975104 L25.8070866,85 L32.2637795,85 L67.7559055,85 L74.2125984,85 L74.2125984,81.5975104 L67.7559055,81.5975104 L67.7559055,71.3900415 L100,71.3900415 Z M3.22834646,3.38174274 L96.7716535,3.38174274 L96.7716535,54.3775934 L3.22834646,54.3775934 L3.22834646,3.38174274 Z M64.5275591,81.5975104 L64.507874,81.5975104 L35.492126,81.5975104 L35.492126,71.3900415 L64.5275591,71.3900415 L64.5275591,81.5975104 Z M67.7362205,67.9875519 L32.2637795,67.9875519 L3.22834646,67.9875519 L3.22834646,57.780083 L96.7716535,57.780083 L96.7716535,67.9875519 L67.7362205,67.9875519 Z M54.7007874,61.1825726 L54.7007874,64.5850622 L57.9291339,64.5850622 L57.9291339,61.1825726 L54.7007874,61.1825726 Z M48.2637795,61.1825726 L48.2637795,64.5850622 L51.492126,64.5850622 L51.492126,61.1825726 L48.2637795,61.1825726 Z M41.8070866,61.1825726 L41.8070866,64.5850622 L45.0354331,64.5850622 L45.0354331,61.1825726 L41.8070866,61.1825726 Z" id="Combined-Shape" fill="url(#linearGradient-2)" fill-rule="nonzero"></path>
            </g>
        </g>
    </g>
</svg>