<?xml version="1.0" encoding="UTF-8"?>
<svg width="85px" height="85px" viewBox="0 0 85 85" version="1.1" xmlns="http://www.w3.org/2000/svg" xmlns:xlink="http://www.w3.org/1999/xlink">
    <!-- Generator: Sketch 46.2 (44496) - http://www.bohemiancoding.com/sketch -->
    <title>Group 11</title>
    <desc>Created with Sketch.</desc>
    <defs>
        <linearGradient x1="0%" y1="64.5174632%" x2="100%" y2="58.4696691%" id="linearGradient-1">
            <stop stop-color="#E40032" offset="0%"></stop>
            <stop stop-color="#A700A9" offset="100%"></stop>
        </linearGradient>
        <linearGradient x1="0%" y1="50%" x2="100%" y2="50%" id="linearGradient-2">
            <stop stop-color="#E20035" offset="0%"></stop>
            <stop stop-color="#A800A6" offset="100%"></stop>
        </linearGradient>
    </defs>
    <g id="Page-1" stroke="none" stroke-width="1" fill="none" fill-rule="evenodd">
        <g id="00.Home" transform="translate(-1318.000000, -930.000000)" fill-rule="nonzero">
            <g id="Group-11" transform="translate(1318.000000, 930.000000)">
                <path d="M32.2598425,8.23228346 L26.7883858,0 L0,0 L0,21.9360236 L0,24.6801181 L0,85 L85,85 L85,24.6801181 L85,21.9360236 L85,8.23228346 L32.2598425,8.23228346 Z M2.74409449,2.74409449 L25.3159449,2.74409449 L30.8041339,10.976378 L82.2559055,10.976378 L82.2559055,21.9360236 L2.74409449,21.9360236 L2.74409449,2.74409449 Z M82.2559055,82.2559055 L2.74409449,82.2559055 L2.74409449,24.6801181 L82.2559055,24.6801181 L82.2559055,82.2559055 Z M6.86023622,28.7962598 L6.86023622,78.1564961 L78.1397638,78.1564961 L78.1397638,28.7962598 L6.86023622,28.7962598 Z M75.4124016,75.3956693 L75.3956693,75.3956693 L9.60433071,75.3956693 L9.60433071,31.5403543 L75.4124016,31.5403543 L75.4124016,75.3956693 Z M9.60433071,10.9596457 L12.3484252,10.9596457 L12.3484252,13.7037402 L9.60433071,13.7037402 L9.60433071,10.9596457 Z M15.0757874,10.9596457 L17.8198819,10.9596457 L17.8198819,13.7037402 L15.0757874,13.7037402 L15.0757874,10.9596457 Z M20.5639764,10.9596457 L23.3080709,10.9596457 L23.3080709,13.7037402 L20.5639764,13.7037402 L20.5639764,10.9596457 Z" id="Combined-Shape-Copy" fill="url(#linearGradient-1)"></path>
                <path d="M58,52.4222222 L58,52.4222222 L58,58.3333333 C58,62.0222222 55.029052,65 51.3486239,65 L35.6513761,65 C31.970948,65 29,62.0222222 29,58.3333333 L29,52.4222222 L31.6605505,52.4222222 L31.6605505,58.3333333 C31.6605505,60.5555556 33.4342508,62.3333333 35.6513761,62.3333333 L51.3486239,62.3333333 C53.5657492,62.3333333 55.3394495,60.5555556 55.3394495,58.3333333 L55.3394495,52.4222222 L58,52.4222222 Z M42.1697248,39 L44.8302752,39 L44.8302752,54.4222222 L50.1513761,49.1333333 L52.0137615,51 L44.4755352,58.5555556 C44.2094801,58.8222222 43.8547401,58.9555556 43.5443425,58.9555556 C43.233945,58.9555556 42.8792049,58.8222222 42.6131498,58.5555556 L35.0749235,51 L36.9373089,49.1333333 L42.1697248,54.4222222 L42.1697248,39 Z" id="Combined-Shape" fill="url(#linearGradient-2)"></path>
            </g>
        </g>
    </g>
</svg>