<?xml version="1.0" encoding="UTF-8"?>
<svg width="28px" height="28px" viewBox="0 0 28 28" version="1.1" xmlns="http://www.w3.org/2000/svg" xmlns:xlink="http://www.w3.org/1999/xlink">
    <!-- Generator: Sketch 46.2 (44496) - http://www.bohemiancoding.com/sketch -->
    <title>XMLID_95_</title>
    <desc>Created with Sketch.</desc>
    <defs></defs>
    <g id="Page-1" stroke="none" stroke-width="1" fill="none" fill-rule="evenodd">
        <g id="04.Contact-us" transform="translate(-1386.000000, -778.000000)" fill-rule="nonzero" fill="#FFFFFF">
            <path d="M1391.97052,795.054203 L1387.64821,799.267817 C1387.45967,799.451516 1387.21259,799.543494 1386.96551,799.543494 C1386.71843,799.543494 1386.47134,799.451602 1386.28281,799.267817 C1385.90573,798.900248 1385.90573,798.304317 1386.28281,797.936747 L1390.60521,793.723133 C1390.98228,793.355649 1391.59354,793.355649 1391.97061,793.723133 C1392.3476,794.090702 1392.3476,794.686633 1391.97052,795.054203 Z M1394.20409,803.12798 L1392.9061,804.393253 C1392.52911,804.760822 1392.52911,805.356754 1392.9061,805.724323 C1393.09464,805.908022 1393.34172,806 1393.5888,806 C1393.83588,806 1394.08297,805.908108 1394.2715,805.724323 L1395.5695,804.459049 C1395.94657,804.09148 1395.94657,803.495549 1395.5695,803.12798 C1395.19251,802.760496 1394.58117,802.760496 1394.20409,803.12798 Z M1413.23942,781.934733 C1413.14858,782.156592 1413.05247,782.391285 1412.95346,782.638727 L1406.65449,798.370284 C1405.75937,800.605817 1405.10599,801.780311 1404.01944,801.995753 C1403.90288,802.01894 1403.79009,802.029892 1403.68046,802.029892 C1402.83143,802.029892 1402.16979,801.369362 1401.35666,800.557732 C1401.3348,800.536 1401.31277,800.514011 1401.29065,800.49185 L1391.1193,801.140829 C1390.71782,801.165984 1390.34268,800.947034 1390.17679,800.589989 C1390.01089,800.233029 1390.08919,799.813267 1390.37349,799.536136 L1395.34436,794.690569 L1391.08401,790.537703 C1389.8572,789.341819 1389.14053,788.401249 1389.35804,787.408829 C1389.59704,786.3181 1390.72976,785.896798 1392.44424,785.259199 C1392.67218,785.174408 1392.91347,785.084655 1393.16714,784.988142 L1409.3056,778.847698 C1411.61132,777.970614 1412.84076,777.683386 1413.59271,778.421862 C1414.36661,779.182155 1413.91818,780.277163 1413.23942,781.934733 Z M1411.94319,779.961015 C1411.57919,780.04863 1410.98145,780.230703 1410.0077,780.601096 L1393.86933,786.741626 C1393.61083,786.839935 1393.36489,786.931485 1393.13264,787.017902 C1392.4222,787.282113 1391.55351,787.605106 1391.27764,787.819692 C1391.34698,787.977039 1391.59117,788.370019 1392.4495,789.206719 L1396.70985,793.359585 L1405.4232,784.865876 C1405.80028,784.498392 1406.41162,784.498392 1406.78869,784.865876 C1407.16568,785.233445 1407.16568,785.829376 1406.78869,786.196945 L1397.39711,795.351612 C1397.39562,795.353152 1397.39404,795.354607 1397.39255,795.356147 C1397.39097,795.357687 1397.38948,795.359056 1397.3879,795.360596 L1393.55264,799.099262 L1399.4791,798.721083 L1398.33532,797.60614 C1397.95825,797.238571 1397.95825,796.64264 1398.33532,796.27507 C1398.52386,796.091371 1398.77094,795.999393 1399.01803,795.999393 C1399.26511,795.999393 1399.51219,796.091286 1399.70073,796.27507 L1402.28899,798.797917 C1402.44804,798.952953 1402.59725,799.101915 1402.73821,799.242577 C1403.05323,799.557013 1403.43241,799.935534 1403.6565,800.089971 C1403.83556,799.891812 1404.20069,799.321549 1404.85566,797.685626 L1411.15463,781.954155 C1411.25557,781.702093 1411.35353,781.462779 1411.44604,781.236813 C1411.61886,780.814912 1411.81767,780.329269 1411.94319,779.961015 Z" id="XMLID_95_"></path>
        </g>
    </g>
</svg>