<?xml version="1.0" encoding="UTF-8"?>
<svg width="158px" height="32px" viewBox="0 0 158 32" version="1.1" xmlns="http://www.w3.org/2000/svg" xmlns:xlink="http://www.w3.org/1999/xlink">
    <!-- Generator: Sketch 46.2 (44496) - http://www.bohemiancoding.com/sketch -->
    <title>iconGroup</title>
    <desc>Created with Sketch.</desc>
    <defs></defs>
    <g id="Page-1" stroke="none" stroke-width="1" fill="none" fill-rule="evenodd">
        <g id="00.Home" transform="translate(-370.000000, -74.000000)" fill="#FFFFFF">
            <g id="Group" transform="translate(370.000000, 74.000000)">
                <g id="XMLID_5_-Copy" transform="translate(7.000000, 5.000000)" fill-rule="nonzero">
                    <g id="XMLID_55_" transform="translate(31.798817, 3.347826)">
                        <path d="M0.373964497,0.27826087 L3.92662722,0.27826087 C6.77810651,0.27826087 8.13372781,1.71594203 8.13372781,4.82318841 L8.13372781,10.2492754 C8.13372781,13.3565217 6.77810651,14.7942029 3.92662722,14.7942029 L0.373964497,14.7942029 L0.373964497,0.27826087 Z M3.73964497,12.7072464 C5.32899408,12.7072464 5.88994083,11.8724638 5.88994083,9.6 L5.88994083,5.42608696 C5.88994083,3.15362319 5.32899408,2.31884058 3.73964497,2.31884058 L2.61775148,2.31884058 L2.61775148,12.6608696 L3.73964497,12.6608696 L3.73964497,12.7072464 Z" id="XMLID_93_"></path>
                        <path d="M16.2207101,11.0376812 C16.2207101,12.7536232 16.0337278,13.4492754 15.3792899,14.1449275 C14.7715976,14.7014493 13.9301775,15.026087 12.9017751,15.026087 C11.8733728,15.026087 10.9852071,14.7014493 10.4242604,14.1449275 C9.76982249,13.4956522 9.58284024,12.7536232 9.58284024,11.0376812 L9.58284024,7.69855072 C9.58284024,5.9826087 9.81656805,5.28695652 10.4242604,4.59130435 C11.0319527,4.03478261 11.8733728,3.71014493 12.9017751,3.71014493 C13.9301775,3.71014493 14.7715976,4.03478261 15.3792899,4.59130435 C16.0337278,5.24057971 16.2207101,5.9826087 16.2207101,7.69855072 L16.2207101,11.0376812 Z M11.5928994,11.1768116 C11.5928994,12.5681159 11.9668639,13.1710145 12.9017751,13.1710145 C13.8366864,13.1710145 14.2106509,12.5681159 14.2106509,11.1768116 L14.2106509,7.6057971 C14.2106509,6.21449275 13.8366864,5.6115942 12.9017751,5.6115942 C12.0136095,5.6115942 11.5928994,6.21449275 11.5928994,7.6057971 L11.5928994,11.1768116 Z" id="XMLID_90_"></path>
                        <polygon id="XMLID_88_" points="24.0272189 14.7942029 22.6248521 8.16231884 21.2224852 14.7942029 19.3059172 14.7942029 16.9686391 3.9884058 19.0254438 3.9884058 20.3343195 10.7130435 21.6899408 3.9884058 23.5597633 3.9884058 24.9621302 10.7130435 26.1775148 3.9884058 28.2343195 3.9884058 25.943787 14.7942029"></polygon>
                        <path d="M31.0857988,5.37971014 C32.0207101,4.31304348 32.8153846,3.84927536 33.7970414,3.84927536 C35.012426,3.84927536 35.5733728,4.63768116 35.5733728,6.35362319 L35.5733728,14.7942029 L33.516568,14.7942029 L33.516568,6.91014493 C33.516568,5.9826087 33.3295858,5.65797101 32.7686391,5.65797101 C32.2076923,5.65797101 31.6,6.02898551 31.0857988,6.72463768 L31.0857988,14.7942029 L29.0289941,14.7942029 L29.0289941,3.9884058 L31.0857988,3.9884058 L31.0857988,5.37971014 Z" id="XMLID_86_"></path>
                        <polygon id="XMLID_84_" points="39.0792899 14.7942029 37.0224852 14.7942029 37.0224852 0.324637681 39.0792899 0.324637681"></polygon>
                        <path d="M47.1195266,11.0376812 C47.1195266,12.7536232 46.9325444,13.4492754 46.2781065,14.1449275 C45.6704142,14.7014493 44.8289941,15.026087 43.8005917,15.026087 C42.7721893,15.026087 41.8840237,14.7014493 41.3230769,14.1449275 C40.6686391,13.4956522 40.4816568,12.7536232 40.4816568,11.0376812 L40.4816568,7.69855072 C40.4816568,5.9826087 40.7153846,5.28695652 41.3230769,4.59130435 C41.9307692,4.03478261 42.7721893,3.71014493 43.8005917,3.71014493 C44.8289941,3.71014493 45.6704142,4.03478261 46.2781065,4.59130435 C46.9325444,5.24057971 47.1195266,5.9826087 47.1195266,7.69855072 L47.1195266,11.0376812 Z M42.491716,11.1768116 C42.491716,12.5681159 42.8656805,13.1710145 43.8005917,13.1710145 C44.735503,13.1710145 45.1094675,12.5681159 45.1094675,11.1768116 L45.1094675,7.6057971 C45.1094675,6.21449275 44.735503,5.6115942 43.8005917,5.6115942 C42.912426,5.6115942 42.491716,6.21449275 42.491716,7.6057971 L42.491716,11.1768116 Z" id="XMLID_81_"></path>
                        <path d="M53.2431953,14.7942029 C53.1497041,14.4695652 53.056213,14.0521739 53.056213,13.542029 C52.0745562,14.6086957 51.4668639,14.9333333 50.6254438,14.9333333 C49.2230769,14.9333333 48.4284024,13.8666667 48.4284024,12.057971 C48.4284024,10.6666667 48.9426036,9.83188406 50.2982249,8.99710145 C50.7656805,8.67246377 51.3266272,8.44057971 53.056213,7.69855072 L53.056213,7.14202899 C53.056213,6.02898551 52.7289941,5.6115942 51.9810651,5.6115942 C51.2331361,5.6115942 50.8591716,6.07536232 50.7656805,7.14202899 L48.6153846,7.14202899 C48.8023669,4.96231884 50.064497,3.80289855 52.2615385,3.80289855 C53.2899408,3.80289855 53.9911243,4.08115942 54.5053254,4.63768116 C54.9727811,5.1942029 55.1130178,5.70434783 55.1130178,7.04927536 L55.1130178,11.8724638 C55.1130178,13.4956522 55.1597633,14.0057971 55.3467456,14.7942029 L53.2431953,14.7942029 Z M53.056213,9.22898551 C51.2798817,10.2028986 50.5319527,10.9449275 50.5319527,11.9652174 C50.5319527,12.6608696 50.9526627,13.1710145 51.560355,13.1710145 C52.1213018,13.1710145 52.635503,12.8463768 53.056213,12.1971014 L53.056213,9.22898551 L53.056213,9.22898551 Z" id="XMLID_78_"></path>
                        <path d="M61.283432,14.7942029 L61.283432,13.7275362 C60.3952663,14.5623188 59.6473373,14.9333333 58.8526627,14.9333333 C58.0579882,14.9333333 57.4502959,14.5623188 57.1230769,13.8202899 C56.795858,13.0782609 56.7023669,12.3362319 56.7023669,10.6666667 L56.7023669,8.06956522 C56.7023669,6.4 56.795858,5.65797101 57.1230769,4.91594203 C57.4502959,4.22028986 58.1047337,3.80289855 58.8526627,3.80289855 C59.6473373,3.80289855 60.3485207,4.17391304 61.283432,5.00869565 L61.283432,0.231884058 L63.3402367,0.231884058 L63.3402367,14.7014493 L61.283432,14.7014493 L61.283432,14.7942029 Z M61.283432,6.16811594 C60.7224852,5.79710145 60.3017751,5.6115942 59.8810651,5.6115942 C59.460355,5.6115942 59.0863905,5.84347826 58.9461538,6.16811594 C58.7591716,6.53913043 58.7591716,6.8173913 58.7591716,7.93043478 L58.7591716,10.7594203 C58.7591716,11.8724638 58.7591716,12.1507246 58.9461538,12.5217391 C59.0863905,12.8463768 59.460355,13.0782609 59.8810651,13.0782609 C60.3485207,13.0782609 60.7692308,12.9391304 61.283432,12.5217391 L61.283432,6.16811594 Z" id="XMLID_75_"></path>
                        <path d="M66.7526627,9.73913043 L66.7526627,10.7130435 C66.7526627,12.6144928 67.0798817,13.1710145 68.1550296,13.1710145 C68.8094675,13.1710145 69.2301775,12.8463768 69.3704142,12.1971014 C69.4171598,11.9652174 69.4639053,11.7797101 69.4639053,11.0376812 L71.5207101,11.0376812 C71.5207101,12.5681159 71.4272189,13.0782609 71.0532544,13.6347826 C70.4923077,14.515942 69.5106509,15.026087 68.1550296,15.026087 C66.8928994,15.026087 65.9579882,14.6550725 65.3970414,13.9130435 C64.9295858,13.2173913 64.695858,12.4289855 64.695858,10.9913043 L64.695858,7.79130435 C64.695858,6.07536232 64.8828402,5.37971014 65.5840237,4.68405797 C66.191716,4.12753623 67.0331361,3.80289855 68.0615385,3.80289855 C69.183432,3.80289855 70.0715976,4.12753623 70.6325444,4.82318841 C71.2869822,5.51884058 71.4739645,6.30724638 71.4739645,7.97681159 L71.4739645,9.73913043 L66.7526627,9.73913043 L66.7526627,9.73913043 Z M69.4171598,7.37391304 C69.4171598,6.07536232 69.0431953,5.56521739 68.0615385,5.56521739 C67.0798817,5.56521739 66.7059172,6.07536232 66.7059172,7.37391304 L66.7059172,7.97681159 L69.3704142,7.97681159 L69.3704142,7.37391304 L69.4171598,7.37391304 Z" id="XMLID_72_"></path>
                        <path d="M74.8863905,3.9884058 L74.8863905,5.84347826 C75.4473373,4.4057971 76.2420118,3.80289855 77.504142,3.80289855 L77.504142,6.16811594 C77.1301775,6.02898551 76.8497041,5.9826087 76.5224852,5.9826087 C75.9615385,5.9826087 75.5408284,6.16811594 75.260355,6.53913043 C74.9798817,6.91014493 74.9331361,7.23478261 74.9331361,8.25507246 L74.9331361,14.7478261 L72.8763314,14.7478261 L72.8763314,3.94202899 L74.8863905,3.94202899 L74.8863905,3.9884058 Z" id="XMLID_70_"></path>
                        <path d="M77.3639053,11.1304348 L77.3639053,8.85797101 L81.664497,0.27826087 L84.0017751,0.27826087 L84.0017751,9.13623188 L85.6378698,9.13623188 L85.6378698,11.084058 L84.0017751,11.084058 L84.0017751,14.7478261 L81.8982249,14.7478261 L81.8982249,11.1304348 L77.3639053,11.1304348 Z M81.8982249,3.84927536 L79.3739645,9.1826087 L81.8982249,9.1826087 L81.8982249,3.84927536 Z" id="XMLID_67_"></path>
                        <polygon id="XMLID_65_" points="88.9568047 14.7942029 86.7130178 14.7942029 86.7130178 0.324637681 88.9568047 0.324637681"></polygon>
                        <path d="M92.6497041,5.37971014 C93.5846154,4.31304348 94.3792899,3.84927536 95.3609467,3.84927536 C96.5763314,3.84927536 97.1372781,4.63768116 97.1372781,6.35362319 L97.1372781,14.7942029 L95.0804734,14.7942029 L95.0804734,6.91014493 C95.0804734,5.9826087 94.8934911,5.65797101 94.3325444,5.65797101 C93.7715976,5.65797101 93.1639053,6.02898551 92.6497041,6.72463768 L92.6497041,14.7942029 L90.5928994,14.7942029 L90.5928994,3.9884058 L92.6497041,3.9884058 L92.6497041,5.37971014 L92.6497041,5.37971014 Z" id="XMLID_63_"></path>
                        <path d="M103.073964,7.1884058 C102.653254,6.07536232 102.185799,5.6115942 101.391124,5.6115942 C100.736686,5.6115942 100.315976,5.9826087 100.315976,6.58550725 C100.315976,7.1884058 100.643195,7.46666667 102.139053,8.30144928 C103.354438,8.99710145 103.915385,9.32173913 104.336095,9.78550725 C104.80355,10.2956522 105.084024,11.0376812 105.084024,11.826087 C105.084024,13.7275362 103.728402,15.026087 101.718343,15.026087 C99.8485207,15.026087 98.6798817,14.0521739 97.9786982,11.9652174 L99.8952663,11.315942 C100.315976,12.6608696 100.876923,13.1710145 101.718343,13.1710145 C102.419527,13.1710145 102.886982,12.7072464 102.886982,12.1043478 C102.886982,11.5014493 102.559763,11.084058 101.344379,10.4811594 C99.8485207,9.64637681 99.4278107,9.36811594 98.960355,8.85797101 C98.4461538,8.34782609 98.1656805,7.6057971 98.1656805,6.8173913 C98.1656805,5.05507246 99.5213018,3.80289855 101.344379,3.80289855 C103.073964,3.80289855 104.195858,4.63768116 104.850296,6.4 L103.073964,7.1884058 Z" id="XMLID_61_"></path>
                        <path d="M111.160947,5.79710145 L109.291124,5.79710145 L109.291124,11.5478261 C109.291124,12.6144928 109.665089,13.0782609 110.553254,13.0782609 C110.833728,13.0782609 110.973964,13.0782609 111.347929,12.9391304 L111.347929,14.7478261 C110.786982,14.8405797 110.413018,14.8869565 109.945562,14.8869565 C108.91716,14.8869565 108.215976,14.6086957 107.748521,14.0985507 C107.374556,13.6347826 107.23432,13.0782609 107.23432,11.7333333 L107.23432,5.75072464 L105.64497,5.75072464 L105.64497,3.94202899 L107.23432,3.94202899 L107.23432,0.973913043 L109.291124,0.973913043 L109.291124,3.94202899 L111.160947,3.94202899 L111.160947,5.79710145 Z" id="XMLID_59_"></path>
                        <path d="M117.004142,14.7942029 C116.910651,14.4695652 116.81716,14.0521739 116.81716,13.542029 C115.835503,14.6086957 115.227811,14.9333333 114.386391,14.9333333 C112.984024,14.9333333 112.189349,13.8666667 112.189349,12.057971 C112.189349,10.6666667 112.70355,9.83188406 114.059172,8.99710145 C114.526627,8.67246377 115.087574,8.44057971 116.81716,7.69855072 L116.81716,7.14202899 C116.81716,6.02898551 116.489941,5.6115942 115.742012,5.6115942 C114.994083,5.6115942 114.620118,6.07536232 114.526627,7.14202899 L112.376331,7.14202899 C112.563314,4.96231884 113.825444,3.80289855 116.022485,3.80289855 C117.050888,3.80289855 117.752071,4.08115942 118.266272,4.63768116 C118.733728,5.1942029 118.873964,5.70434783 118.873964,7.04927536 L118.873964,11.8724638 C118.873964,13.4956522 118.92071,14.0057971 119.107692,14.7942029 L117.004142,14.7942029 Z M116.81716,9.22898551 C115.040828,10.2028986 114.292899,10.9449275 114.292899,11.9652174 C114.292899,12.6608696 114.713609,13.1710145 115.321302,13.1710145 C115.882249,13.1710145 116.39645,12.8463768 116.81716,12.1971014 L116.81716,9.22898551 L116.81716,9.22898551 Z" id="XMLID_56_"></path>
                    </g>
                    <ellipse id="XMLID_11_" cx="17.3076923" cy="2.65217391" rx="1.91656805" ry="1.90144928"></ellipse>
                    <path d="M11.6982249,3.53333333 L11.6982249,10.7681159 L15.9053254,10.7681159 L8.89349112,17.7710145 L1.83491124,10.7681159 L6.0887574,10.7681159 L6.0887574,3.53333333 C2.81656805,4.73913043 0.9,7.61449275 0.9,11 C0.9,15.4521739 4.45266272,19.0231884 8.94023669,19.0231884 C13.4278107,19.0231884 16.9337278,15.4057971 16.9337278,11 C16.9337278,7.61449275 14.9704142,4.73913043 11.6982249,3.53333333 Z" id="XMLID_9_"></path>
                </g>
                <path d="M16,2.88280111 C20.2720498,2.88280111 20.7781233,2.89907575 22.4653483,2.97606729 C24.0251941,3.0474253 24.8724058,3.30781945 25.436066,3.52721404 C26.183127,3.8173407 26.716116,4.1641156 27.2757076,4.72402562 C27.8356122,5.28393564 28.1823837,5.81692992 28.4728205,6.56368527 C28.6918999,7.12766394 28.9526045,7.97457088 29.0236488,9.53474498 C29.1006396,11.2219864 29.1169141,11.727752 29.1169141,16.0001565 C29.1169141,20.272248 29.1006396,20.7783266 29.0236488,22.465255 C28.9526045,24.0254291 28.6918999,24.872649 28.4728205,25.4366277 C28.1823837,26.1833831 27.8356122,26.7160644 27.2757076,27.2759744 C26.716116,27.8358844 26.183127,28.1826593 25.436066,28.4730989 C24.8724058,28.6921805 24.0251941,28.9528877 22.4653483,29.0239327 C20.7784363,29.1009243 20.2723627,29.1171989 16,29.1171989 C11.7273243,29.1171989 11.2215637,29.1009243 9.53465172,29.0239327 C7.97449289,28.9528877 7.12728126,28.6921805 6.56362107,28.4730989 C5.81687303,28.1826593 5.28388397,27.8358844 4.72397942,27.2759744 C4.16407488,26.7160644 3.81730337,26.1833831 3.52686658,25.4366277 C3.3077871,24.872649 3.0473955,24.0254291 2.97603818,22.465255 C2.8990474,20.7783266 2.88277292,20.272248 2.88277292,16.0001565 C2.88277292,11.727752 2.8990474,11.2219864 2.97603818,9.53474498 C3.0473955,7.97457088 3.3077871,7.12766394 3.52686658,6.56368527 C3.81730337,5.81692992 4.16407488,5.28393564 4.72397942,4.72402562 C5.28388397,4.1641156 5.81687303,3.8173407 6.56362107,3.52721404 C7.12728126,3.30781945 7.97449289,3.0474253 9.53465172,2.97606729 C11.2215637,2.89907575 11.7279502,2.88280111 16,2.88280111 M16,0 C11.6547151,0 11.1098331,0.0184654506 9.40320404,0.0963959118 C7.7000176,0.174013399 6.53701856,0.44442271 5.51923792,0.840021517 C4.4670305,1.24876522 3.57506406,1.79584332 2.68560139,2.68531469 C1.79582575,3.57478605 1.24875301,4.46707418 0.840013301,5.5192919 C0.444418364,6.5370825 0.174011697,7.70040589 0.096394969,9.403296 C0.01846527,11.1099418 0,11.6545161 0,16.0001565 C0,20.3454839 0.01846527,20.8903712 0.096394969,22.596704 C0.174011697,24.2999071 0.444418364,25.4629175 0.840013301,26.4807081 C1.24875301,27.5329258 1.79582575,28.4252139 2.68560139,29.3146853 C3.57506406,30.2041567 4.4670305,30.7512348 5.51923792,31.1602915 C6.53701856,31.5555773 7.7000176,31.8262996 9.40320404,31.9039171 C11.1098331,31.9818475 11.6547151,32 16,32 C20.3452849,32 20.8901669,31.9818475 22.596796,31.9039171 C24.2996694,31.8262996 25.4626685,31.5555773 26.4804491,31.1602915 C27.5326565,30.7512348 28.4249359,30.2041567 29.3143986,29.3146853 C30.2038613,28.4252139 30.750934,27.5329258 31.1596737,26.4807081 C31.5552687,25.4629175 31.8256753,24.2999071 31.903605,22.596704 C31.9812218,20.8903712 32,20.3454839 32,16.0001565 C32,11.6545161 31.9812218,11.1099418 31.903605,9.403296 C31.8256753,7.70040589 31.5552687,6.5370825 31.1596737,5.5192919 C30.750934,4.46707418 30.2038613,3.57478605 29.3143986,2.68531469 C28.4249359,1.79584332 27.5326565,1.24876522 26.4804491,0.840021517 C25.4626685,0.44442271 24.2996694,0.174013399 22.596796,0.0963959118 C20.8901669,0.0184654506 20.3452849,0 16,0" id="Fill-22"></path>
            </g>
        </g>
    </g>
</svg>