<?xml version="1.0" encoding="UTF-8"?>
<svg width="44px" height="44px" viewBox="0 0 44 44" version="1.1" xmlns="http://www.w3.org/2000/svg" xmlns:xlink="http://www.w3.org/1999/xlink">
    <!-- Generator: Sketch 46.2 (44496) - http://www.bohemiancoding.com/sketch -->
    <title>Group 9</title>
    <desc>Created with Sketch.</desc>
    <defs></defs>
    <g id="Page-1" stroke="none" stroke-width="1" fill="none" fill-rule="evenodd">
        <g id="01.Home" transform="translate(-266.000000, -1551.000000)" fill-rule="nonzero">
            <g id="Group-9" transform="translate(266.000000, 1551.000000)">
                <g id="Group">
                    <path d="M22,42.9980108 C33.5776598,42.9980108 43,33.5765528 43,21.9990054 C43,10.4207575 33.5789485,1 22,1 C10.4210515,1 1,10.4207575 1,21.9990054 C1,33.5772533 10.4210515,42.9980108 22,42.9980108 Z" id="Shape" stroke="#CDD7E6" stroke-width="2"></path>
                    <path d="M25.2346011,30 C25.0388547,30 24.8431084,29.928747 24.6942596,29.7822826 L17.2232732,22.5243772 C16.9255756,22.2344173 16.9255756,21.7643457 17.2232732,21.4743857 L24.6942596,14.21747 C24.9929767,13.92751 25.4772451,13.92751 25.7759622,14.21747 C26.0746793,14.5074299 26.0746793,14.9775015 25.7759622,15.2674615 L18.8453173,21.9998763 L25.7759622,28.7342704 C26.0736598,29.0242303 26.0736598,29.4952916 25.7759622,29.7842619 C25.6260939,29.928747 25.4303475,30 25.2346011,30 Z" id="Shape" fill="#BFC7D4"></path>
                </g>
            </g>
        </g>
    </g>
</svg>