<?xml version="1.0" encoding="UTF-8"?>
<svg width="24px" height="20px" viewBox="0 0 24 20" version="1.1" xmlns="http://www.w3.org/2000/svg" xmlns:xlink="http://www.w3.org/1999/xlink">
    <!-- Generator: Sketch 46.2 (44496) - http://www.bohemiancoding.com/sketch -->
    <title>Combined Shape</title>
    <desc>Created with Sketch.</desc>
    <defs></defs>
    <g id="Page-1" stroke="none" stroke-width="1" fill="none" fill-rule="evenodd">
        <g id="02.Result" transform="translate(-1039.000000, -864.000000)" fill-rule="nonzero" fill="#FFFFFF">
            <g id="Group-4" transform="translate(1000.000000, 839.000000)">
                <g id="Group-3" transform="translate(39.000000, 25.000000)">
                    <path d="M24,10 L24,10 L24,14.6996466 C24,17.6325088 21.5412844,20 18.4954128,20 L5.50458716,20 C2.4587156,20 0,17.6325088 0,14.6996466 L0,10 L2.20183486,10 L2.20183486,14.6996466 C2.20183486,16.4664311 3.66972477,17.8798587 5.50458716,17.8798587 L18.4954128,17.8798587 C20.3302752,17.8798587 21.7981651,16.4664311 21.7981651,14.6996466 L21.7981651,10 L24,10 Z M10.8638743,0 L13.0628272,0 L13.0628272,11.5924276 L17.460733,7.6169265 L19,9.02004454 L12.7696335,14.6993318 C12.5497382,14.8997773 12.2565445,15 12,15 C11.7434555,15 11.4502618,14.8997773 11.2303665,14.6993318 L5,9.02004454 L6.53926702,7.6169265 L10.8638743,11.5924276 L10.8638743,0 Z" id="Combined-Shape"></path>
                </g>
            </g>
        </g>
    </g>
</svg>