<?xml version="1.0" encoding="UTF-8"?>
<svg width="25px" height="26px" viewBox="0 0 25 26" version="1.1" xmlns="http://www.w3.org/2000/svg" xmlns:xlink="http://www.w3.org/1999/xlink">
    <!-- Generator: Sketch 46.2 (44496) - http://www.bohemiancoding.com/sketch -->
    <title>Shape</title>
    <desc>Created with Sketch.</desc>
    <defs></defs>
    <g id="Page-1" stroke="none" stroke-width="1" fill="none" fill-rule="evenodd">
        <g id="00.Home" transform="translate(-1300.000000, -346.000000)" fill-rule="nonzero" fill="#FF3F85">
            <path d="M1324.61989,369.68188 L1318.45696,363.246006 C1320.04156,361.354633 1320.90977,358.974897 1320.90977,356.49749 C1320.90977,350.709265 1316.21962,346 1310.45489,346 C1304.69015,346 1300,350.709265 1300,356.49749 C1300,362.285714 1304.69015,366.994979 1310.45489,366.994979 C1312.61905,366.994979 1314.68139,366.339571 1316.44463,365.09539 L1322.65437,371.5801 C1322.91393,371.850753 1323.26303,372 1323.63713,372 C1323.99123,372 1324.32715,371.864445 1324.58216,371.617983 C1325.124,371.094477 1325.14127,370.226381 1324.61989,369.68188 Z M1310.45489,348.738476 C1314.71593,348.738476 1318.18241,352.219078 1318.18241,356.49749 C1318.18241,360.775901 1314.71593,364.256504 1310.45489,364.256504 C1306.19384,364.256504 1302.72736,360.775901 1302.72736,356.49749 C1302.72736,352.219078 1306.19384,348.738476 1310.45489,348.738476 Z" id="Shape"></path>
        </g>
    </g>
</svg>