<?xml version="1.0" encoding="UTF-8"?>
<svg width="17px" height="16px" viewBox="0 0 17 16" version="1.1" xmlns="http://www.w3.org/2000/svg" xmlns:xlink="http://www.w3.org/1999/xlink">
    <!-- Generator: Sketch 46.2 (44496) - http://www.bohemiancoding.com/sketch -->
    <title>Shape</title>
    <desc>Created with Sketch.</desc>
    <defs></defs>
    <g id="Page-1" stroke="none" stroke-width="1" fill="none" fill-rule="evenodd">
        <g id="00.Home" transform="translate(-908.000000, -485.000000)" fill-rule="nonzero" fill="#FCB941">
            <g id="Group-3" transform="translate(847.000000, 485.000000)">
                <g id="Group-2" transform="translate(61.000000, 0.000000)">
                    <path d="M16.6310722,7.25093007 C16.9656898,6.93056891 17.0838101,6.46039376 16.9394786,6.02332483 C16.7948067,5.5862559 16.4179789,5.2742549 15.9550288,5.20804247 L11.8388576,4.62049074 C11.6635492,4.59541027 11.5120692,4.48739707 11.4337762,4.33122936 L9.59354947,0.667474815 C9.38692393,0.255820758 8.96754558,0 8.5001702,0 C8.03313522,0 7.61375688,0.255820758 7.40713134,0.667474815 L5.5665642,4.33156377 C5.48827116,4.48773147 5.33645075,4.59574468 5.16114243,4.62082515 L1.04497118,5.20837688 C0.582361463,5.2742549 0.205193274,5.58659031 0.0605213603,6.02365924 C-0.0838101489,6.46072817 0.0343102136,6.93090331 0.36892784,7.25126447 L3.34712684,10.1030807 C3.47409772,10.2248046 3.53230689,10.4000334 3.50235129,10.5712494 L2.7997564,14.5981691 C2.73746237,14.9526397 2.83209482,15.2974125 3.06561231,15.5692848 C3.42848351,15.9929775 4.06197629,16.1220583 4.56849819,15.8605526 L8.24963249,13.9591188 C8.40349532,13.8798646 8.59718549,13.8805334 8.75070792,13.9591188 L12.4321826,15.8605526 C12.6112354,15.9531831 12.8022023,16 12.9992965,16 C13.3591041,16 13.7001894,15.8428291 13.9347281,15.5692848 C14.168586,15.2974125 14.262878,14.9519709 14.200584,14.5981691 L13.4976487,10.5712494 C13.4676931,10.399699 13.5259023,10.2248046 13.6528732,10.1030807 L16.6310722,7.25093007 Z" id="Shape"></path>
                </g>
            </g>
        </g>
    </g>
</svg>